<svg xmlns="http://www.w3.org/2000/svg" width="640" height="180" viewBox="0 0 640 180">
  <defs>
    <linearGradient id="g1" x1="0" y1="0" x2="1" y2="1">
      <stop offset="0%" stop-color="#0f8b8d"/>
      <stop offset="100%" stop-color="#115f61"/>
    </linearGradient>
  </defs>
  <rect width="640" height="180" fill="#ffffff"/>
  <rect x="16" y="16" width="148" height="148" rx="20" fill="url(#g1)"/>
  <path d="M48 108c18-28 35-43 51-43 17 0 28 11 36 22 5 8 9 14 16 14 8 0 15-8 23-23l10 8c-10 20-22 31-36 31-16 0-24-11-31-22-7-10-13-16-20-16-10 0-23 12-38 36z" fill="#ffffff"/>
  <text x="186" y="80" font-family="Arial, sans-serif" font-size="48" font-weight="700" fill="#102127">SHCSO</text>
  <text x="186" y="116" font-family="Arial, sans-serif" font-size="20" fill="#4b5f66">Sistema de Historias Clinicas y Salud Ocupacional</text>
</svg>
